<?xml version="1.0" encoding="UTF-8"?>
<svg id="Layer_2" data-name="Layer 2" xmlns="http://www.w3.org/2000/svg" viewBox="0 0 321.03 115">
  <defs>
    <style>
      .cls-1 {
        fill: #fff;
        stroke-width: 0px;
      }
    </style>
  </defs>
  <g id="Layer_1-2" data-name="Layer 1">
    <g>
      <path class="cls-1" d="m126.9,50.76l-1.73-12.01c-.84-6.1-2.89-12.72-10.28-12.72-5.01,0-8.16,2.89-9.96,6.36-1.22-3.47-3.73-6.36-8.48-6.36s-8.16,2.89-10.21,6.23v-3.79c0-1.29-.26-2.25-1.35-2.25-.58,0-1.22.13-4.56,1.8-.23.11-.42.21-.63.31-2.78,1.38-3.81,2.07-3.81,3.03,0,2.44,4.3.45,4.54,4.01v16.03c0,1.24-.47,2.1-1.03,2.8-1.26,1.55-3.84,1.09-3.84,2.92,0,.72.69,1.25,1.67,1.32.16,0,.31,0,.49-.01.07,0,.13.03.19.03,1.5-.03,2.54-.19,5.03-.19.09,0,.15,0,.23,0,.05,0,.1,0,.14,0,2.13,0,3.91.16,5.28.18.65-.01,1.22-.21,1.51-.6.04-.06.08-.11.1-.18.03-.07.04-.14.06-.22.02-.07.06-.13.06-.22,0-.22-.03-.41-.09-.57-.02-.06-.06-.11-.09-.17-.04-.07-.07-.16-.12-.22-.06-.07-.13-.12-.19-.18-.04-.03-.07-.07-.12-.1-.37-.26-.87-.44-1.38-.68-.34-.17-.7-.38-1.03-.69-.11-.1-.22-.19-.32-.32-.02-.02-.04-.04-.06-.07-.39-.55-.66-1.33-.7-2.5,0-.12,0-.21,0-.33v-10.92c0-6.61,4.18-9.57,8.03-9.57,5.07,0,5.91,4.95,5.91,8.67v11.82c0,5.2-4.05,3.34-4.05,5.78,0,.58.52,1.28,1.54,1.28,1.41,0,3.15-.19,5.39-.19,2.38,0,4.24.19,5.65.19.96,0,1.48-.71,1.48-1.28,0-2.44-4.24-.58-4.24-5.78v-11.43c0-6.29,3.47-9.06,7.26-9.06,5.01,0,5.78,5.4,6.23,8.67l1.6,10.85c.13.64.19,1.41.19,1.93,0,3.98-4.37,2.44-4.37,4.75,0,.77.77,1.35,1.86,1.35,1.8,0,2.76-.19,5.52-.19,2.57,0,3.79.19,5.59.19.96,0,1.8-.39,1.8-1.22,0-2.57-3.85-.45-4.75-6.49Z"/>
      <path class="cls-1" d="m165.46,54.68c-3.34-.64-4.75-1.16-5.39-5.97l-1.6-10.79c-.9-6.23-2.95-11.95-11.24-11.95-4.82,0-9.51,2.57-11.63,5.52-.64.84-1.03,1.41-1.03,2.06,0,.77.64,1.28,1.28,1.28.45,0,.96-.26,1.6-.77,2.31-2.12,4.95-3.66,7.84-3.66,4.24,0,6.74,2.19,7.71,9.31l.13.84c-2.38-.71-4.82-1.22-7.64-1.22-8.16,0-13.04,4.5-13.04,10.08s4.3,9.57,10.92,9.57c5.07,0,9.25-2.12,11.75-5.07.96,3.34,3.27,4.88,5.91,4.88,3.02,0,5.46-1.93,5.46-3.15,0-.51-.32-.83-1.03-.96Zm-20.17.45c-3.98,0-6.74-2.57-6.74-6.23,0-3.85,2.83-6.29,8.22-6.29,2.25,0,4.63.45,6.81,1.28l.9,6.36c-1.86,2.57-5.39,4.88-9.18,4.88Z"/>
      <path class="cls-1" d="m286.8,53.05l.29.17c1.74.97,10.54,5.73,16.9,5.73,14.7,0,16.69-10.02,16.69-19.81,0-.68,0-1.58.02-2.56.02-2.55.05-5.73-.04-7.54l-.04-.71c-.17-3.26-.25-4.2-1.02-4.2-1.51,0-5.88,2.75-5.88,8,0,1.18.03,2.42.06,3.92.15,6.61.32,14.1-2.63,17.12-.88.91-2,1.36-3.33,1.36-4.09,0-8.58-1.62-13.34-4.83l-.52-.35.5-.38s1.26-.97,3.16-2.98c3.4-3.6,4.95-9.04,3.95-13.87-.74-3.58-2.79-6.26-5.77-7.53-1.72-.74-3.58-1.2-5.39-1.33-2.67-.19-5.61-.2-8.96-.01-2.56.15-6.37.75-9.37,2-2.91,1.22-4.43,3.43-4.64,6.75-.19,3.03,3.02,11.28,14.17,17.46l.48.27-.37.42c-.05.06-5.48,6.14-12.48,4.97-4.39-.74-6.85-5.94-8.32-9.05-.29-.61-.54-1.16-.77-1.58-.24-.44-.5-1.01-.8-1.67l-.13-.29c-1.97-4.33-5.64-12.39-14.13-13.86-6.49-1.11-15.07,2.21-17.03,8.71-1.84,6.12.03,11.04.05,11.09l.03.09v.15c-1.13,3.76-2.94,5.73-5.72,6.24-.53.08-1.09.12-1.72.12-5.98,0-8.42-3.97-8.42-13.69v-16.06c0-4.01-1.24-8.54-4.71-9.21-.29-.05-2.33-.1-3.1-.12h-.18c-.2,0-.33-.02-.38-.02-.09,0-.22,0-.42,0-.58,0-1.55-.01-1.95,0-.88.04-1.29.43-1.29,1.22,0,.38.21,1.11,1.59,1.78,3.82,1.84,3.17,6.71,3.16,6.76l-.04.37h-.39c-13,.42-21.91,5.8-22.7,13.72-.32,3.23.65,6.18,2.73,8.32,2.28,2.32,5.78,3.45,9.82,3.14,6.47-.51,9.22-2.63,10.13-3.33.28-.22.46-.36.73-.27l.23.08.07.24c1.6,7,4.59,10.78,15.83,10.78.51,0,2.06-.01,2.63-.03.4-.02.8-.04,1.18-.07l.08-.03c2.65-.25,4.65-1.82,5.99-4.67l.28-.62.46.51c.46.53,4.59,5.05,11.17,5.05s9.58-4.93,11.33-7.58l.86-1.28.36.59s.04.07.09.17c1.29,2.7,4.38,7.35,10.56,8,11.19,1.21,15.56-.93,20.15-5.55l.24-.24Zm-81.79-9.16l-.08.12c-.26.33-2.55,3.14-6.43,3.63-.52.07-1,.1-1.46.1-2.06,0-3.85-.62-5.18-1.79-1.62-1.43-2.56-3.67-2.56-6.15,0-2.08,1.1-8.99,15.2-10.71l.5-.06v14.88Zm49.11,4.13v.02c-.44.66-4.07,4.04-11.03,4.04-5.48,0-9.25-4.09-10.55-8.14-1.23-3.83-.35-7.51,2.25-9.37,1.71-1.23,4.05-1.62,6.56-1.1,3.72.77,7.21,3.35,9.33,6.91,1.06,1.76,1.95,3.72,2.81,5.62l.24.52c.15.33.3.65.45.97.11.24-.02.45-.06.53Zm17.7-15.22l-.26-.3.37-.15c.11-.04,10.8-4.18,19.8-3.36,1,.09,2.05.33,3.14.71,2.49.87,3.4,3.57,2.31,6.9-1.38,4.21-7.7,9.04-8.95,9.76h0s-.23.13-.23.13l-.22-.13c-8.06-4.84-15.86-13.49-15.94-13.58Z"/>
      <path class="cls-1" d="m201.18,6.63c2.1,0,3.94-1.57,3.94-3.35s-1.84-3.28-3.94-3.28-3.86,1.5-3.86,3.28,1.76,3.35,3.86,3.35Z"/>
      <path class="cls-1" d="m192.19,6.56c2.13,0,3.85-1.53,3.85-3.28s-1.8-3.21-3.85-3.21-3.77,1.46-3.77,3.21,1.72,3.28,3.77,3.28Z"/>
      <ellipse class="cls-1" cx="314.68" cy="11.07" rx="4.78" ry="4.04"/>
      <path class="cls-1" d="m32.53,50.77l-1.67-12c-.34-2.57-.97-5.66-2.41-8.14-1.46-2.54-3.77-4.44-7.49-4.54-.1,0-.2-.02-.3-.02-4.94,0-8.28,2.89-10.33,6.22v-3.78c0-1.41-.32-2.25-1.35-2.25-.51,0-1.22.19-4.49,1.8-3.34,1.6-4.49,2.31-4.49,3.34,0,2.5,4.55.32,4.55,4.3v15.72c0,5.2-4.04,3.34-4.04,5.77,0,.58.45,1.28,1.54,1.28,1.35,0,3.14-.19,5.39-.19s4.23.19,5.65.19c.96,0,1.41-.71,1.41-1.28,0-2.44-4.17-.58-4.17-5.77v-10.84c0-6.19,3.73-9.24,7.39-9.56.28-.02.51-.03.75-.05,1.27.02,2.29.39,3.11.97,2.39,1.7,3.13,5.26,3.51,7.68l1.54,10.84c.07.64.19,1.41.19,1.93,0,3.98-4.3,2.44-4.3,4.75,0,.5.29.89.79,1.13h0c.27.13.59.22,1,.22,1.26,0,2.23-.1,3.68-.16,0,0,0,0,0,0,.54-.02,1.13-.04,1.84-.04.66,0,1.23.01,1.76.03,1.52.05,2.58.16,3.82.16,1.03,0,1.8-.39,1.8-1.28,0-2.5-3.91-.39-4.68-6.42Z"/>
      <path class="cls-1" d="m66.19,51.36c0,.37-.19.87-.56,1.5-2.31,3.31-7.74,6.12-13.17,6.12-8.49,0-15.67-5.93-15.67-16.36,0-9.8,7.18-16.6,15.36-16.6,7.68,0,12.8,5.87,12.8,11.99,0,1.31-.37,1.69-1.31,2l-20.04,5.99c1.69,5.12,5.74,8.74,10.92,8.74,3.68,0,6.8-1.62,8.8-3.87.62-.62,1.12-.94,1.62-.94.69,0,1.25.63,1.25,1.44Zm-23.53-11.05c0,.87.06,1.69.19,2.5l14.42-4.5c1.12-.31,1.43-.62,1.43-1.69,0-3.12-2.93-6.99-7.36-6.99-4.93,0-8.68,4.24-8.68,10.67Z"/>
      <path class="cls-1" d="m77.08,17.24c0,5.49-5.3,10.6-7.7,10.6-.82,0-1.32-.44-1.32-1.14,0-.63.38-1.07,1.01-1.51.95-.76,2.78-2.33,2.78-3.97,0-.82-.82-1.2-1.64-1.64-1.14-.57-2.21-1.26-2.21-3.03,0-2.08,2.02-3.72,4.61-3.72,3.03,0,4.48,1.58,4.48,4.41Z"/>
      <g>
        <g>
          <path class="cls-1" d="m161.88,89.72c1,0,1.72-.15,2.14-.46.42-.31.63-.73.63-1.27,0-.35-.12-.81-.37-1.36-.24-.56-.57-1.18-.97-1.86-.4-.69-.84-1.39-1.33-2.11l1.4-.92c.79,1.21,1.43,2.31,1.92,3.31.5,1,.87,1.9,1.11,2.7.19.6.4,1.04.64,1.32.24.28.49.46.74.54.26.07.49.11.71.11.28,0,.5.08.63.23.14.16.2.34.2.56s-.1.42-.28.6c-.19.18-.43.27-.73.27-.53,0-1.04-.12-1.53-.35-.49-.23-.88-.62-1.18-1.18-.27.45-.7.82-1.29,1.11-.59.29-1.41.44-2.45.44-.75,0-1.44-.09-2.08-.27-.64-.18-1.17-.44-1.59-.76l.81-1.4c.27.19.65.36,1.14.52.49.16,1.06.23,1.71.23Z"/>
          <path class="cls-1" d="m168.33,91.39l.18-1.67c1.4,0,2.75-.21,4.07-.62,1.32-.41,2.52-1,3.6-1.76-.53-.46-1.18-.83-1.94-1.12-.77-.29-1.61-.43-2.53-.43-.34,0-.64.02-.9.05-.26.03-.57.09-.94.17l-.33-1.55c.76-.23,1.48-.35,2.16-.35s1.34.08,1.91.25c.57.17,1.09.38,1.56.62.47.24.91.49,1.32.73.41.24.82.45,1.21.62.39.17.8.25,1.22.25h.43l.14,1.47c-.42,0-.83.05-1.22.14.26.61.62,1.01,1.1,1.21.47.2,1.18.3,2.12.3.29,0,.49.08.62.23.13.16.19.34.19.56s-.1.42-.28.6c-.19.18-.43.27-.73.27-.73,0-1.39-.06-1.96-.19-.58-.13-1.07-.39-1.48-.77-.41-.39-.71-.97-.9-1.74-.52.24-1.04.52-1.58.82-.54.31-1.13.6-1.78.89-.65.28-1.4.52-2.26.71-.86.19-1.86.28-3.01.28Z"/>
          <path class="cls-1" d="m181.3,91.39l.18-1.67c.77,0,1.32-.07,1.63-.22.31-.15.49-.41.54-.78.05-.37.06-.91.03-1.6l-.35-10.36h1.69l.33,10.32c.01.69.12,1.23.33,1.62.2.39.47.65.81.8.34.15.71.22,1.12.22.28,0,.49.08.62.23.13.16.19.34.19.56s-.1.42-.28.6c-.19.18-.43.27-.73.27-.69,0-1.24-.13-1.65-.4s-.7-.59-.88-.97c-.27.45-.69.79-1.25,1.02-.56.23-1.34.35-2.33.35Z"/>
          <path class="cls-1" d="m187.4,91.39l.18-1.67c.77,0,1.32-.07,1.63-.22.31-.15.49-.41.54-.78.05-.37.06-.91.03-1.6l-.39-10.36h1.65l.41,10.18c.04.96-.02,1.78-.19,2.44-.17.67-.55,1.17-1.14,1.51-.59.34-1.5.51-2.72.51Z"/>
          <path class="cls-1" d="m207.88,91.39c-.88,0-1.64-.15-2.27-.45-.63-.3-1.08-.85-1.33-1.65-.73.18-1.43.25-2.11.21-.67-.03-1.28-.16-1.82-.39-.54-.22-.97-.54-1.28-.94-.31-.4-.47-.88-.47-1.44,0-.73.23-1.4.69-2,.46-.6,1.09-1.12,1.87-1.54.79-.42,1.66-.71,2.61-.88l-.06-1.55h1.65l.33,6.72c.03.64.14,1.12.34,1.44.2.32.47.53.81.63.35.1.76.15,1.25.15.28,0,.49.08.62.23.13.16.19.34.19.56s-.1.42-.28.6c-.19.18-.43.27-.73.27Zm-7.67-4.91c0,.31.13.57.38.77.25.2.57.35.97.45s.81.14,1.25.14.85-.03,1.23-.1l-.18-3.72c-.77.08-1.43.25-1.97.52s-.96.57-1.24.92c-.28.35-.43.69-.43,1.03Zm1.38-8.04c-.28,0-.53-.1-.72-.3-.2-.2-.3-.43-.3-.7s.1-.51.3-.71c.2-.2.44-.31.72-.31s.51.1.7.31c.2.2.3.44.3.71s-.1.51-.3.7c-.2.2-.43.3-.7.3Zm2.79,0c-.28,0-.53-.1-.72-.3-.2-.2-.3-.43-.3-.7s.1-.51.3-.71c.2-.2.44-.31.72-.31s.51.1.7.31c.2.2.3.44.3.71s-.1.51-.3.7-.43.3-.7.3Z"/>
          <path class="cls-1" d="m207.88,91.39l.2-1.67c.68,0,1.21-.05,1.59-.15.38-.1.67-.3.86-.59.2-.29.36-.72.48-1.27.12-.56.27-1.28.45-2.18l1.59.31c-.08.37-.17.79-.27,1.26-.1.48-.15.88-.15,1.2,0,.2.01.39.04.57.03.18.13.33.31.45.18.12.47.22.9.3.42.07,1.02.11,1.81.11.29,0,.49.08.62.23.13.16.19.34.19.56s-.1.42-.28.6c-.19.18-.43.27-.73.27-.88,0-1.57-.05-2.07-.15-.5-.1-.86-.25-1.1-.45-.24-.2-.41-.44-.52-.74-.39.56-.88.92-1.46,1.09-.58.17-1.39.25-2.45.25Zm2.34,3.85c-.28,0-.53-.1-.72-.3-.2-.2-.3-.43-.3-.7s.1-.51.3-.71c.2-.2.44-.31.72-.31s.51.1.7.31c.2.2.3.44.3.71s-.1.51-.3.7c-.2.2-.43.3-.7.3Zm2.79,0c-.28,0-.53-.1-.72-.3-.2-.2-.3-.43-.3-.7s.1-.51.3-.71c.2-.2.44-.31.72-.31s.51.1.7.31c.2.2.3.44.3.71s-.1.51-.3.7c-.2.2-.43.3-.7.3Z"/>
          <path class="cls-1" d="m215.47,91.39l.2-1.67c.57,0,1.02-.05,1.34-.15.33-.1.57-.3.74-.59.17-.29.32-.72.44-1.27.12-.56.27-1.28.45-2.18l1.59.31c-.08.37-.17.79-.27,1.26-.1.48-.15.88-.15,1.2,0,.27.06.52.18.73.12.22.38.39.78.51.4.12,1.03.18,1.88.18.28,0,.49.08.62.23.13.16.19.34.19.56s-.1.42-.28.6c-.19.18-.43.27-.73.27-1.07,0-1.87-.12-2.38-.35-.52-.23-.87-.58-1.06-1.04-.41.57-.88.94-1.4,1.12-.53.18-1.24.26-2.14.26Zm3.81-7.96c-.28,0-.53-.1-.72-.3-.2-.2-.3-.43-.3-.7s.1-.51.3-.71c.2-.2.44-.31.72-.31s.51.1.7.31c.2.2.3.44.3.71s-.1.51-.3.7-.43.3-.7.3Z"/>
          <path class="cls-1" d="m222.45,91.39l.2-1.67h1.02c.22-.34.45-.67.69-1l-.39-11.97h1.65l.37,10.06c.83-.84,1.73-1.56,2.72-2.15.98-.59,1.98-.89,3-.89.75,0,1.39.15,1.92.46.54.31.95.72,1.24,1.23.29.52.44,1.1.44,1.75s-.23,1.28-.69,1.92-1.26,1.15-2.38,1.52c-.87.28-1.91.48-3.13.58-1.22.1-2.73.15-4.52.15h-2.14Zm9.14-5.94c-.58,0-1.17.14-1.76.43-.59.28-1.16.65-1.7,1.09-.54.44-1.04.91-1.49,1.4-.45.5-.82.95-1.12,1.35h1.38c2.36,0,4.09-.2,5.19-.61,1.1-.41,1.65-1.05,1.65-1.91,0-.23-.07-.48-.22-.75-.15-.27-.38-.51-.7-.7-.32-.2-.73-.3-1.23-.3Z"/>
          <path class="cls-1" d="m237.42,95.97l-.37-1.67c.84-.11,1.61-.27,2.31-.48.7-.21,1.3-.51,1.8-.89.5-.38.88-.9,1.12-1.55h-1.3c-.61,0-1.18-.08-1.7-.25-.52-.17-.94-.44-1.26-.82-.32-.38-.48-.88-.48-1.49,0-.75.15-1.46.45-2.13.3-.67.71-1.22,1.22-1.64.52-.42,1.1-.63,1.75-.63.94,0,1.71.41,2.33,1.23.62.82.93,2.08.93,3.78v.28h1.83c.28,0,.49.08.62.23.13.16.19.34.19.56s-.1.42-.29.6c-.19.18-.43.27-.73.27h-1.87c-.69,2.63-2.88,4.16-6.55,4.58Zm4.34-6.25h.86c.01-.14.02-.27.02-.41,0-.92-.17-1.69-.51-2.3-.34-.61-.78-.92-1.32-.92-.29,0-.55.11-.8.33-.25.22-.45.51-.6.88-.15.37-.22.77-.22,1.2,0,.48.21.8.64.97.43.17,1.08.25,1.94.25Z"/>
          <path class="cls-1" d="m245.84,91.39l.18-1.67c.77,0,1.32-.07,1.63-.22.31-.15.49-.41.54-.78.05-.37.06-.91.03-1.6l-.39-10.36h1.65l.41,10.18c.04.96-.02,1.78-.19,2.44-.17.67-.55,1.17-1.14,1.51-.59.34-1.5.51-2.72.51Z"/>
          <path class="cls-1" d="m253.01,91.29l-.41-14.53h1.65l.41,14.53h-1.65Z"/>
          <path class="cls-1" d="m265.38,91.29c-1,0-1.84-.26-2.5-.78-.67-.52-1-1.33-1-2.43,0-.54.19-1.22.58-2.03.39-.81,1.06-1.66,2.03-2.55l-.59-.53,1.06-1.26c.71.56,1.36,1.15,1.95,1.79.6.64,1.08,1.32,1.45,2.04.37.72.55,1.48.55,2.28,0,.31-.05.67-.16,1.06-.11.39-.29.78-.55,1.15-.26.37-.62.68-1.08.92-.46.24-1.04.36-1.73.36Zm-1.24-11.4c-.28,0-.53-.1-.72-.3-.2-.2-.29-.43-.29-.7s.1-.51.29-.71.44-.31.72-.31.51.1.7.31.3.44.3.71-.1.51-.3.7c-.2.2-.43.3-.7.3Zm1.24,9.73c.68,0,1.19-.17,1.55-.52.35-.35.53-.8.53-1.37,0-.31-.05-.64-.14-.98-.1-.34-.28-.71-.57-1.11-.29-.4-.71-.84-1.28-1.33-.62.61-1.11,1.24-1.46,1.89-.35.65-.52,1.22-.52,1.71,0,.57.18,1,.54,1.28.36.28.81.43,1.35.43Zm1.55-9.73c-.28,0-.53-.1-.72-.3-.2-.2-.3-.43-.3-.7s.1-.51.3-.71c.2-.2.44-.31.72-.31s.51.1.7.31c.2.2.29.44.29.71s-.1.51-.29.7c-.2.2-.43.3-.7.3Z"/>
          <path class="cls-1" d="m268.78,95.97l-.59-1.55c1.37-.43,2.43-.95,3.17-1.55.74-.6,1.25-1.22,1.53-1.88.28-.66.42-1.29.42-1.88,0-.38-.04-.75-.12-1.1-.08-.35-.22-.75-.43-1.2s-.49-1-.85-1.67l1.49-.75c.52.88.89,1.72,1.11,2.5.22.79.34,1.48.34,2.08,0,.85-.14,1.63-.42,2.32-.28.69-.64,1.31-1.1,1.84-.45.54-.95.99-1.49,1.37-.54.38-1.07.69-1.61.94-.54.24-1.01.42-1.44.53Z"/>
          <path class="cls-1" d="m276.88,90.37l.81-1.4c.27.19.65.36,1.14.52.49.16,1.06.23,1.71.23,1,0,1.72-.15,2.14-.46.42-.31.63-.73.63-1.27,0-.27-.06-.61-.17-1.01-.12-.4-.36-.94-.74-1.63-.38-.68-.96-1.58-1.75-2.7l1.4-.92c1.07,1.49,1.83,2.76,2.26,3.81.43,1.05.65,1.89.65,2.54,0,.56-.14,1.09-.41,1.59-.27.5-.73.92-1.36,1.24-.64.33-1.52.49-2.65.49-.75,0-1.44-.09-2.08-.27-.64-.18-1.17-.44-1.59-.76Z"/>
          <path class="cls-1" d="m291.8,91.39c-1.1,0-1.93-.12-2.5-.37-.57-.24-.96-.62-1.18-1.14-.22-.52-.34-1.18-.37-1.99l-.41-11.13h1.67l.41,10.48c.03.66.09,1.18.19,1.54.1.36.33.61.69.74.36.14.93.2,1.7.2.28,0,.49.08.62.23.13.16.19.34.19.56s-.1.42-.29.6c-.19.18-.43.27-.73.27Z"/>
          <path class="cls-1" d="m291.8,91.39l.2-1.67c.57,0,1.02-.05,1.34-.15s.57-.3.74-.59c.17-.29.32-.72.44-1.27.12-.56.27-1.28.45-2.18l1.59.31c-.08.37-.17.79-.27,1.26-.1.48-.15.88-.15,1.2,0,.27.06.52.18.73.12.22.38.39.78.51.4.12,1.03.18,1.88.18.29,0,.49.08.62.23.13.16.19.34.19.56s-.1.42-.28.6c-.19.18-.43.27-.73.27-1.07,0-1.87-.12-2.38-.35-.52-.23-.87-.58-1.06-1.04-.41.57-.88.94-1.4,1.12-.53.18-1.24.26-2.14.26Zm3.46,3.79c-.28,0-.53-.1-.72-.3-.2-.2-.3-.43-.3-.7s.1-.51.3-.71c.2-.2.44-.31.72-.31s.51.1.7.31c.2.2.3.44.3.71s-.1.51-.3.7c-.2.2-.43.3-.7.3Z"/>
          <path class="cls-1" d="m298.79,91.39l.2-1.67c.38,0,.68-.08.91-.24s.44-.43.65-.8c.21-.37.48-.89.8-1.54.43-.87.87-1.53,1.31-1.99.44-.46.86-.78,1.26-.96.4-.18.76-.26,1.09-.26.45,0,.85.1,1.2.3.35.2.68.53.99,1,.31.47.63,1.11.97,1.92.31.76.59,1.32.84,1.69.25.37.52.61.79.72.28.12.59.17.95.17.28,0,.49.08.62.23.13.16.19.34.19.56s-.1.42-.29.6c-.19.18-.43.27-.73.27-.53,0-1.01-.08-1.46-.25-.44-.17-.79-.43-1.05-.78-.26.46-.58.8-.97,1.01-.39.21-.8.32-1.25.32-.68,0-1.37-.21-2.08-.64-.71-.43-1.3-.99-1.79-1.7-.35.62-.69,1.08-1.01,1.37-.32.29-.65.48-1,.56-.35.08-.74.12-1.17.12Zm3.95-3.6c.46.77.98,1.34,1.55,1.7.57.36,1.08.54,1.53.54.47,0,.82-.17,1.05-.51.22-.34.21-.81-.03-1.42-.16-.41-.33-.81-.51-1.2-.18-.39-.38-.72-.61-.97-.23-.25-.5-.38-.81-.38-.3.01-.62.18-.98.49-.35.31-.75.9-1.18,1.75Z"/>
          <path class="cls-1" d="m310.55,91.39l.18-1.67c.77,0,1.32-.07,1.63-.22.31-.15.49-.41.54-.78.05-.37.06-.91.03-1.6l-.39-10.36h1.65l.41,10.18c.04.96-.02,1.78-.19,2.44-.17.67-.55,1.17-1.14,1.51-.59.34-1.5.51-2.72.51Z"/>
          <path class="cls-1" d="m317.72,91.29l-.41-14.53h1.65l.41,14.53h-1.65Z"/>
        </g>
        <g>
          <path class="cls-1" d="m.47,92.14l-.47-1.55c.35-.08.76-.18,1.21-.31.45-.12.94-.26,1.46-.41-.49-.22-.92-.57-1.29-1.07-.37-.5-.56-1.09-.56-1.78s.16-1.28.48-1.77c.32-.49.74-.87,1.26-1.13.52-.26,1.1-.4,1.72-.4.23,0,.48.02.75.07.27.05.53.11.77.17l-.26,1.53c-.2-.05-.42-.1-.65-.13-.23-.03-.43-.05-.61-.05-.62,0-1.09.17-1.39.51s-.46.74-.46,1.2c0,.38.1.73.31,1.05.2.32.46.59.77.8.31.22.63.35.96.41.38-.12.76-.25,1.14-.4.38-.14.75-.29,1.1-.44l.61,1.49c-.39.16-.89.35-1.48.56-.59.21-1.21.42-1.87.63-.66.21-1.29.41-1.9.59-.61.18-1.14.32-1.59.42Z"/>
          <path class="cls-1" d="m9.89,90.96l-.41-14.53h1.65l.41,14.53h-1.65Z"/>
          <path class="cls-1" d="m17.24,89.39c1,0,1.72-.15,2.14-.46.42-.31.63-.73.63-1.27,0-.35-.12-.81-.37-1.36-.24-.56-.57-1.18-.97-1.86-.4-.69-.84-1.39-1.33-2.11l1.4-.92c.79,1.21,1.43,2.31,1.92,3.31.5,1,.87,1.9,1.11,2.7.19.6.4,1.04.64,1.32.24.28.49.46.74.54.26.07.49.11.71.11.29,0,.5.08.63.23.14.16.2.34.2.56s-.1.42-.29.6c-.19.18-.43.27-.73.27-.53,0-1.04-.12-1.53-.35-.49-.23-.88-.62-1.18-1.18-.27.45-.7.82-1.29,1.11-.59.29-1.41.44-2.45.44-.75,0-1.44-.09-2.08-.27-.64-.18-1.17-.44-1.59-.76l.81-1.4c.27.19.65.36,1.14.52.49.16,1.06.23,1.71.23Zm.12-9.83c-.29,0-.53-.1-.72-.3-.2-.2-.29-.43-.29-.7s.1-.51.29-.71c.2-.2.44-.31.72-.31s.51.1.7.31c.2.2.3.44.3.71s-.1.51-.3.7-.43.3-.7.3Z"/>
          <path class="cls-1" d="m23.69,91.06l.2-1.67c.72,0,1.4-.06,2.06-.18.65-.12,1.26-.29,1.81-.51-.33-.38-.69-.77-1.1-1.16-.41-.39-.85-.77-1.34-1.12-.08-.07-.16-.19-.24-.37-.08-.18-.15-.36-.2-.55-.05-.19-.08-.33-.08-.43,0-.2.13-.45.39-.73.26-.28.6-.56,1.04-.82.43-.26.93-.48,1.49-.66.56-.18,1.13-.26,1.73-.26.77,0,1.4.12,1.88.35.48.23.83.53,1.06.89.22.36.34.74.34,1.15,0,.67-.19,1.33-.57,1.98-.38.66-.9,1.26-1.57,1.8.58.22,1.21.38,1.89.48.68.1,1.36.15,2.04.15.29,0,.49.08.62.23.13.16.19.34.19.56s-.1.42-.28.6c-.19.18-.43.27-.73.27-.9,0-1.82-.1-2.76-.32-.94-.21-1.78-.53-2.51-.97-.75.39-1.57.71-2.47.94-.9.23-1.86.35-2.86.35Zm2.56-5.88c.52.43,1,.86,1.46,1.27.45.41.96.92,1.52,1.52.58-.38,1.04-.79,1.37-1.23.33-.44.5-.88.5-1.31,0-.27-.15-.54-.44-.79-.29-.26-.8-.39-1.54-.39-.46,0-.97.09-1.54.26-.56.18-1.01.4-1.33.67Zm3.03-4.68c-.29,0-.53-.1-.72-.29-.2-.2-.3-.43-.3-.7s.1-.51.3-.71c.2-.2.44-.31.72-.31s.51.1.7.31c.2.2.29.44.29.71s-.1.51-.29.7c-.2.2-.43.29-.7.29Z"/>
          <path class="cls-1" d="m34.3,91.06l.18-1.67c.77,0,1.32-.07,1.63-.22.31-.15.49-.41.54-.78.05-.37.06-.91.03-1.6l-.39-10.36h1.65l.41,10.18c.04.96-.02,1.78-.19,2.44-.17.67-.55,1.17-1.14,1.51-.59.34-1.5.51-2.72.51Z"/>
          <path class="cls-1" d="m41.46,90.96l-.41-14.53h1.65l.41,14.53h-1.65Z"/>
          <path class="cls-1" d="m49.81,95.64l-.59-1.55c1.37-.43,2.43-.95,3.17-1.55.74-.6,1.25-1.22,1.53-1.88.28-.66.42-1.29.42-1.88,0-.38-.04-.75-.12-1.1-.08-.35-.22-.75-.43-1.2s-.49-1-.85-1.67l1.49-.75c.52.88.89,1.72,1.11,2.5.22.79.34,1.48.34,2.08,0,.85-.14,1.63-.42,2.32-.28.69-.64,1.31-1.1,1.84-.45.54-.95.99-1.49,1.37-.54.38-1.07.69-1.61.94-.54.24-1.01.42-1.43.53Z"/>
          <path class="cls-1" d="m61.57,89.39c1,0,1.72-.15,2.14-.46.42-.31.63-.73.63-1.27,0-.35-.12-.81-.37-1.36-.24-.56-.57-1.18-.97-1.86-.4-.69-.84-1.39-1.33-2.11l1.4-.92c.79,1.21,1.43,2.31,1.92,3.31.5,1,.87,1.9,1.11,2.7.19.6.4,1.04.64,1.32.24.28.49.46.74.54.26.07.49.11.71.11.28,0,.5.08.63.23.14.16.2.34.2.56s-.1.42-.29.6c-.19.18-.43.27-.73.27-.53,0-1.04-.12-1.53-.35-.49-.23-.88-.62-1.18-1.18-.27.45-.7.82-1.29,1.11-.59.29-1.41.44-2.45.44-.75,0-1.44-.09-2.08-.27-.64-.18-1.17-.44-1.59-.76l.81-1.4c.27.19.65.36,1.14.52.49.16,1.06.23,1.71.23Z"/>
          <path class="cls-1" d="m75.86,91.12c-1.18,0-2.33-.31-3.46-.94-.65.28-1.35.5-2.11.65-.75.15-1.51.22-2.27.22l.2-1.67c.53,0,1.02-.03,1.47-.08.45-.05.85-.14,1.22-.24-.38-.39-.69-.84-.93-1.33-.24-.49-.36-1.03-.36-1.62,0-.77.21-1.47.62-2.1.41-.62.97-1.03,1.68-1.22-.31-.24-.64-.49-1-.73l.96-1.26c1.3.95,2.38,1.79,3.23,2.51.85.73,1.52,1.36,2.02,1.89.5.54.86,1,1.1,1.4.24.4.39.76.46,1.07.07.31.1.6.1.86,0,.45-.1.87-.29,1.26-.2.39-.51.71-.94.96-.43.24-.99.37-1.7.37Zm-4.7-5.21c0,.52.13.98.39,1.4.26.42.58.79.98,1.1.61-.38,1.03-.81,1.27-1.28.24-.48.36-.9.36-1.26,0-.43-.13-.83-.38-1.19-.25-.36-.6-.54-1.05-.54s-.84.18-1.13.55c-.29.37-.44.77-.44,1.22Zm4.5.2c0,.62-.15,1.2-.44,1.72-.29.52-.68.98-1.17,1.37.6.2,1.17.31,1.73.31.46,0,.8-.08,1.02-.23.22-.16.33-.42.33-.78,0-.08-.02-.22-.05-.41-.03-.19-.15-.46-.36-.8-.2-.35-.56-.78-1.06-1.31v.14Z"/>
          <path class="cls-1" d="m80.89,95.64l-.37-1.67c.87-.11,1.66-.27,2.36-.49.71-.22,1.31-.53,1.81-.94s.88-.95,1.12-1.63c-.24.07-.5.12-.77.15-.27.03-.54.05-.79.05-1.05,0-1.85-.21-2.4-.63-.56-.42-.83-1.07-.83-1.95,0-.52.08-1.03.24-1.56.16-.52.39-1,.69-1.43.3-.43.66-.78,1.08-1.05.42-.26.89-.4,1.4-.4.73,0,1.34.24,1.82.72.48.48.84,1.1,1.08,1.86.24.76.36,1.57.36,2.42,0,1.9-.57,3.4-1.72,4.5-1.15,1.1-2.84,1.78-5.08,2.04Zm1.73-7.51c0,.42.14.76.41,1.01.27.25.74.38,1.4.38.58,0,1.14-.08,1.67-.24v-.29c0-.56-.07-1.08-.22-1.58-.15-.5-.36-.89-.63-1.19-.27-.3-.6-.45-.98-.45-.33,0-.61.12-.86.36-.24.24-.44.54-.58.91-.14.37-.21.73-.21,1.1Z"/>
          <path class="cls-1" d="m98.48,89.39c1,0,1.72-.15,2.14-.46.42-.31.63-.73.63-1.27,0-.35-.12-.81-.37-1.36-.24-.56-.57-1.18-.97-1.86-.4-.69-.84-1.39-1.33-2.11l1.4-.92c.79,1.21,1.43,2.31,1.92,3.31.5,1,.87,1.9,1.11,2.7.19.6.4,1.04.64,1.32.24.28.49.46.74.54.26.07.5.11.71.11.28,0,.5.08.63.23.14.16.2.34.2.56s-.1.42-.28.6c-.19.18-.43.27-.73.27-.53,0-1.04-.12-1.53-.35-.49-.23-.88-.62-1.18-1.18-.27.45-.7.82-1.29,1.11-.59.29-1.41.44-2.45.44-.75,0-1.44-.09-2.08-.27-.64-.18-1.17-.44-1.59-.76l.81-1.4c.27.19.65.36,1.14.52.49.16,1.06.23,1.71.23Z"/>
          <path class="cls-1" d="m104.93,91.06l.2-1.67c.46,0,.94,0,1.44-.02.5-.01.97-.05,1.44-.1-.33-.3-.64-.68-.96-1.16-.31-.48-.47-1.05-.47-1.73,0-.72.17-1.37.51-1.96.34-.59.78-1.06,1.31-1.39.54-.34,1.12-.51,1.74-.51.66,0,1.25.18,1.75.55.5.37.89.83,1.17,1.39.28.56.42,1.15.42,1.76s-.13,1.21-.39,1.71c-.26.5-.6.94-1.04,1.32.54.04,1.1.07,1.67.1.57.03,1.07.04,1.49.04.28,0,.49.08.62.23.13.16.19.34.19.56s-.1.42-.28.6c-.19.18-.43.27-.73.27-.83,0-1.69-.06-2.59-.19-.9-.13-1.68-.29-2.36-.48-.22.08-.44.16-.67.22-.62.18-1.34.3-2.14.36-.8.06-1.57.09-2.32.09Zm3.66-10.65c-.28,0-.53-.1-.72-.29-.2-.2-.3-.43-.3-.7s.1-.51.3-.71c.2-.2.44-.31.72-.31s.51.1.7.31c.2.2.3.44.3.71s-.1.51-.3.7-.43.29-.7.29Zm-.35,6c0,.53.16.99.49,1.39.33.4.69.72,1.1.97.56-.24,1.02-.57,1.4-.98.38-.41.57-.9.57-1.47,0-.31-.07-.63-.22-.97-.15-.33-.35-.61-.61-.84-.26-.23-.56-.35-.9-.35s-.63.11-.91.34c-.28.22-.5.51-.67.84-.17.34-.25.69-.25,1.06Zm3.13-6c-.28,0-.53-.1-.72-.29-.2-.2-.3-.43-.3-.7s.1-.51.3-.71c.2-.2.44-.31.72-.31s.51.1.7.31c.2.2.3.44.3.71s-.1.51-.3.7c-.2.2-.43.29-.7.29Z"/>
          <path class="cls-1" d="m115.01,91.06l.2-1.67c.45,0,.96,0,1.54-.01.58,0,1.14-.03,1.68-.08.54-.05.97-.13,1.28-.23.43-.15.78-.34,1.05-.58.26-.24.46-.55.6-.93-.24.08-.51.14-.78.17-.28.03-.55.05-.82.05-1.05,0-1.85-.24-2.4-.73-.56-.49-.83-1.11-.83-1.85,0-.52.08-1.03.24-1.56.16-.52.39-1,.69-1.43.3-.43.66-.78,1.08-1.05.42-.26.89-.4,1.4-.4.73,0,1.34.24,1.82.72.48.48.84,1.1,1.08,1.86.24.76.36,1.57.36,2.42,0,1.02-.17,1.89-.52,2.62-.35.73-.92,1.33-1.72,1.8-.42.24-.95.43-1.58.56-.63.13-1.32.21-2.07.25-.75.04-1.51.06-2.3.06Zm3.11-6.27c0,.42.14.76.41,1.01.27.25.74.38,1.4.38.58,0,1.14-.08,1.67-.24v-.28c0-.56-.07-1.08-.22-1.58-.15-.5-.36-.89-.63-1.19-.27-.3-.6-.45-.98-.45-.33,0-.61.12-.86.36-.24.24-.44.54-.58.91-.14.37-.21.73-.21,1.1Zm1.42-6.13c-.29,0-.53-.1-.72-.3-.2-.2-.29-.43-.29-.7s.1-.51.29-.71c.2-.2.44-.31.72-.31s.51.1.7.31c.2.2.3.44.3.71s-.1.51-.3.7c-.2.2-.43.3-.7.3Z"/>
          <path class="cls-1" d="m130.01,90.98c0-.49.07-1.03.2-1.63.14-.6.35-1.25.65-1.97l1.47.57c-.22.57-.38,1.09-.49,1.57-.11.48-.16.92-.16,1.32,0,.76.19,1.37.56,1.83.37.46.88.8,1.51,1.02.63.22,1.33.33,2.09.33,1.24,0,2.2-.17,2.9-.51.7-.34,1.19-.78,1.49-1.33.29-.55.44-1.13.44-1.74,0-.9-.1-1.72-.3-2.47-.2-.75-.41-1.53-.64-2.33l1.65-.45c.22.77.37,1.33.45,1.68.08.35.16.63.22.84.15.5.35.87.59,1.11.24.24.52.39.83.47.31.07.64.11,1,.11.29,0,.49.08.62.23.13.16.19.34.19.56s-.1.42-.28.6c-.19.18-.43.27-.73.27-.42,0-.79-.06-1.11-.17-.32-.12-.59-.26-.8-.44-.07.66-.22,1.31-.47,1.93-.24.62-.61,1.18-1.11,1.68-.5.5-1.15.89-1.96,1.18-.81.29-1.83.44-3.03.44-1.02,0-1.96-.17-2.84-.51-.88-.34-1.58-.85-2.12-1.55-.54-.69-.8-1.57-.8-2.65Zm6.15-8.12c-.28,0-.53-.1-.72-.3-.2-.2-.3-.43-.3-.7s.1-.51.3-.71c.2-.2.44-.31.72-.31s.51.1.7.31c.2.2.3.44.3.71s-.1.51-.3.7-.43.3-.7.3Z"/>
          <path class="cls-1" d="m144.26,91.06l.2-1.67c.38,0,.7-.08.96-.24.26-.16.51-.43.75-.8.24-.37.51-.89.79-1.54.39-.87.78-1.53,1.17-1.97.39-.45.77-.75,1.16-.92.39-.16.77-.24,1.15-.24.46,0,.89.12,1.28.36.39.24.74.55,1.04.95.3.39.53.82.7,1.29.17.47.25.93.25,1.39,0,.81-.14,1.46-.43,1.94-.28.48-.65.83-1.09,1.04-.44.21-.9.32-1.37.32-.39,0-.89-.07-1.5-.2-.6-.14-1.36-.49-2.27-1.06-.43.62-.87,1.01-1.3,1.15-.43.14-.94.21-1.51.21Zm3.81-3.18c-.08.18-.16.35-.22.51.58.34,1.12.57,1.6.7.48.13.89.19,1.21.19.58,0,1-.13,1.24-.39.24-.26.37-.6.37-1.02,0-.39-.1-.79-.28-1.18-.19-.39-.43-.72-.72-.98-.29-.26-.6-.39-.93-.39-.24,0-.48.07-.71.2-.23.14-.47.39-.71.75-.24.37-.52.9-.83,1.59Z"/>
        </g>
      </g>
      <g>
        <g>
          <path class="cls-1" d="m9.93,114.89h-1.86l-4.91-7.76c-.49-.79-1.22-2.08-1.31-2.29l-.09.06c.06.17.11,1.22.11,2.21l.04,7.78H.2v-12.37h1.89l4.91,7.84c.77,1.24,1.11,1.95,1.26,2.25l.11-.06c-.02-.26-.11-1.18-.11-2.23l-.04-7.8h1.71v12.37Z"/>
          <path class="cls-1" d="m20.94,114.87s-.43.11-.9.11c-.92,0-1.59-.43-1.59-1.46v-.02h-.04c-.24.45-1.01,1.5-3.07,1.5-1.95,0-3-1.01-3-2.46,0-1.93,1.84-2.7,5.74-2.7h.26v-.56c0-1.2-.73-1.97-2.19-1.97-1.26,0-2.02.51-2.02,1.43,0,.21.04.32.09.45l-1.56.26s-.11-.34-.11-.77c0-1.61,1.39-2.76,3.64-2.76,2.4,0,3.81,1.29,3.81,3.34v3.58c0,.49.13.67.54.67.11,0,.24-.02.32-.04l.09,1.39Zm-2.61-3.04v-.84h-.26c-3.02,0-4.05.54-4.05,1.52,0,.69.52,1.11,1.65,1.11,1.73,0,2.66-.96,2.66-1.78Z"/>
          <path class="cls-1" d="m28.68,114.42s-.88.58-2.32.58c-2.29,0-3.21-1.22-3.21-3.49v-4.14h-1.41v-1.33h1.41v-2.62l1.67-.09v2.72h3.43v1.33h-3.43v4.09c0,1.42.51,2.14,1.71,2.14,1.03,0,1.63-.51,1.63-.51l.53,1.33Z"/>
          <path class="cls-1" d="m31.04,104.28c-.64,0-1.14-.47-1.14-1.11s.51-1.12,1.14-1.12,1.16.49,1.16,1.12-.52,1.11-1.16,1.11Zm-.88,1.76l1.67-.06v8.91h-1.67v-8.85Z"/>
          <path class="cls-1" d="m43.04,110.5c0,2.68-1.82,4.5-4.56,4.5s-4.56-1.82-4.56-4.5,1.82-4.58,4.56-4.58,4.56,1.89,4.56,4.58Zm-1.69,0c0-1.84-1.14-3.19-2.87-3.19s-2.87,1.35-2.87,3.19,1.14,3.11,2.87,3.11,2.87-1.27,2.87-3.11Z"/>
          <path class="cls-1" d="m53.17,109.47v5.42h-1.67v-5.42c0-1.29-.73-2.16-2.06-2.16-1.84,0-2.66,1.67-2.66,2.94v4.63h-1.65v-8.85l1.16-.06c.15.67.22,1.67.22,2.06h.06c.47-1.11,1.46-2.12,3.15-2.12,2.12,0,3.45,1.42,3.45,3.54Z"/>
          <path class="cls-1" d="m63.8,114.87s-.43.11-.9.11c-.92,0-1.59-.43-1.59-1.46v-.02h-.04c-.24.45-1.01,1.5-3.07,1.5-1.95,0-3-1.01-3-2.46,0-1.93,1.84-2.7,5.74-2.7h.26v-.56c0-1.2-.73-1.97-2.19-1.97-1.26,0-2.02.51-2.02,1.43,0,.21.04.32.09.45l-1.56.26s-.11-.34-.11-.77c0-1.61,1.39-2.76,3.64-2.76,2.4,0,3.81,1.29,3.81,3.34v3.58c0,.49.13.67.54.67.11,0,.24-.02.32-.04l.09,1.39Zm-2.61-3.04v-.84h-.26c-3.02,0-4.05.54-4.05,1.52,0,.69.53,1.11,1.65,1.11,1.72,0,2.66-.96,2.66-1.78Z"/>
          <path class="cls-1" d="m65.73,101.65h1.65v13.24h-1.65v-13.24Z"/>
          <path class="cls-1" d="m76.26,103.96v3.94h4.93v1.48h-4.93v5.51h-1.71v-12.37h7.48v1.44h-5.77Z"/>
          <path class="cls-1" d="m92.11,110.5c0,2.68-1.82,4.5-4.56,4.5s-4.56-1.82-4.56-4.5,1.82-4.58,4.56-4.58,4.56,1.89,4.56,4.58Zm-1.69,0c0-1.84-1.14-3.19-2.87-3.19s-2.87,1.35-2.87,3.19,1.14,3.11,2.87,3.11,2.87-1.27,2.87-3.11Z"/>
          <path class="cls-1" d="m102.75,110.5c0,2.68-1.82,4.5-4.56,4.5s-4.56-1.82-4.56-4.5,1.82-4.58,4.56-4.58,4.56,1.89,4.56,4.58Zm-1.69,0c0-1.84-1.14-3.19-2.87-3.19s-2.87,1.35-2.87,3.19,1.14,3.11,2.87,3.11,2.87-1.27,2.87-3.11Z"/>
          <path class="cls-1" d="m113.29,101.65v13.24l-1.22.06c-.09-.62-.19-1.71-.17-2.06h-.06c-.51,1.18-1.61,2.12-3.32,2.12-2.49,0-4.22-1.82-4.22-4.56s1.73-4.52,4.31-4.52c1.44,0,2.44.64,3.02,1.5v-5.78h1.65Zm-1.65,8.98v-.36c0-1.33-.88-2.96-2.92-2.96-1.65,0-2.72,1.26-2.72,3.13s1.09,3.17,2.83,3.17c1.87,0,2.81-1.67,2.81-2.98Z"/>
          <path class="cls-1" d="m128.33,113.44v1.44h-7.87v-12.37h1.71v10.93h6.17Z"/>
          <path class="cls-1" d="m138.26,110.5c0,2.68-1.82,4.5-4.56,4.5s-4.56-1.82-4.56-4.5,1.82-4.58,4.56-4.58,4.56,1.89,4.56,4.58Zm-1.69,0c0-1.84-1.14-3.19-2.87-3.19s-2.87,1.35-2.87,3.19,1.14,3.11,2.87,3.11,2.87-1.27,2.87-3.11Z"/>
          <path class="cls-1" d="m145.39,108.78c0-.92-.81-1.46-1.97-1.46s-1.74.51-1.74,1.24c0,2.08,5.32.58,5.38,3.94.02,1.59-1.5,2.51-3.66,2.51s-3.32-.92-3.83-1.33l1.01-1.12c.38.36,1.48,1.07,2.83,1.07s1.95-.47,1.95-1.14c0-1.82-5.38-.66-5.38-3.94,0-1.46,1.39-2.61,3.47-2.61s3.47,1.09,3.47,2.55c0,.36-.07.62-.07.62l-1.52.11c.04-.13.06-.3.06-.43Z"/>
          <path class="cls-1" d="m154.22,108.78c0-.92-.81-1.46-1.97-1.46s-1.74.51-1.74,1.24c0,2.08,5.32.58,5.38,3.94.02,1.59-1.5,2.51-3.66,2.51s-3.32-.92-3.83-1.33l1.01-1.12c.38.36,1.48,1.07,2.83,1.07s1.95-.47,1.95-1.14c0-1.82-5.38-.66-5.38-3.94,0-1.46,1.39-2.61,3.47-2.61s3.47,1.09,3.47,2.55c0,.36-.07.62-.07.62l-1.52.11c.04-.13.06-.3.06-.43Z"/>
        </g>
        <g>
          <path class="cls-1" d="m171.19,114.87s-.43.11-.9.11c-.92,0-1.59-.43-1.59-1.46v-.02h-.04c-.24.45-1.01,1.5-3.07,1.5-1.95,0-3-1.01-3-2.46,0-1.93,1.84-2.7,5.74-2.7h.26v-.56c0-1.2-.73-1.97-2.19-1.97-1.26,0-2.02.51-2.02,1.43,0,.21.04.32.09.45l-1.56.26s-.11-.34-.11-.77c0-1.61,1.39-2.76,3.64-2.76,2.4,0,3.81,1.29,3.81,3.34v3.58c0,.49.13.67.54.67.11,0,.24-.02.32-.04l.09,1.39Zm-2.61-3.04v-.84h-.26c-3.02,0-4.05.54-4.05,1.52,0,.69.52,1.11,1.65,1.11,1.73,0,2.66-.96,2.66-1.78Z"/>
          <path class="cls-1" d="m181.14,109.47v5.42h-1.67v-5.42c0-1.29-.73-2.16-2.06-2.16-1.84,0-2.66,1.67-2.66,2.94v4.63h-1.65v-8.85l1.16-.06c.15.67.23,1.67.23,2.06h.06c.47-1.11,1.46-2.12,3.15-2.12,2.12,0,3.45,1.42,3.45,3.54Z"/>
          <path class="cls-1" d="m192.13,101.65v13.24l-1.22.06c-.09-.62-.19-1.71-.17-2.06h-.06c-.51,1.18-1.61,2.12-3.32,2.12-2.49,0-4.22-1.82-4.22-4.56s1.72-4.52,4.31-4.52c1.44,0,2.44.64,3.02,1.5v-5.77h1.65Zm-1.65,8.98v-.36c0-1.33-.88-2.96-2.92-2.96-1.65,0-2.72,1.26-2.72,3.13s1.09,3.17,2.83,3.17c1.87,0,2.81-1.67,2.81-2.98Z"/>
          <path class="cls-1" d="m213.97,102.51l-3.54,12.38h-1.88l-2.29-8.19c-.19-.64-.36-1.5-.39-1.78h-.04c-.04.28-.22,1.14-.41,1.78l-2.4,8.19h-1.8l-3.53-12.38h1.76l2.33,8.96.36,1.48h.04c.11-.49.21-.97.36-1.48l2.53-8.96h1.59l2.53,8.96c.15.54.24.99.36,1.48h.04l.36-1.48,2.32-8.96h1.71Z"/>
          <path class="cls-1" d="m223.1,114.87s-.43.11-.9.11c-.92,0-1.59-.43-1.59-1.46v-.02h-.04c-.24.45-1.01,1.5-3.07,1.5-1.95,0-3-1.01-3-2.46,0-1.93,1.84-2.7,5.74-2.7h.26v-.56c0-1.2-.73-1.97-2.19-1.97-1.26,0-2.02.51-2.02,1.43,0,.21.04.32.09.45l-1.56.26s-.11-.34-.11-.77c0-1.61,1.39-2.76,3.64-2.76,2.4,0,3.81,1.29,3.81,3.34v3.58c0,.49.13.67.54.67.11,0,.24-.02.32-.04l.09,1.39Zm-2.61-3.04v-.84h-.26c-3.02,0-4.05.54-4.05,1.52,0,.69.53,1.11,1.65,1.11,1.72,0,2.66-.96,2.66-1.78Z"/>
          <path class="cls-1" d="m230.06,108.78c0-.92-.81-1.46-1.97-1.46s-1.74.51-1.74,1.24c0,2.08,5.32.58,5.38,3.94.02,1.59-1.5,2.51-3.66,2.51s-3.32-.92-3.82-1.33l1.01-1.12c.38.36,1.48,1.07,2.83,1.07s1.95-.47,1.95-1.14c0-1.82-5.38-.66-5.38-3.94,0-1.46,1.39-2.61,3.47-2.61s3.47,1.09,3.47,2.55c0,.36-.07.62-.07.62l-1.52.11c.04-.13.06-.3.06-.43Z"/>
          <path class="cls-1" d="m239.83,114.42s-.88.58-2.32.58c-2.29,0-3.21-1.22-3.21-3.49v-4.14h-1.41v-1.33h1.41v-2.62l1.67-.09v2.72h3.43v1.33h-3.43v4.09c0,1.42.51,2.14,1.71,2.14,1.03,0,1.63-.51,1.63-.51l.52,1.33Z"/>
          <path class="cls-1" d="m242.34,110.91c.17,1.63,1.28,2.7,3.04,2.7,1.35,0,2.12-.64,2.51-1.16l1.01.92c-.82,1.09-2.14,1.63-3.66,1.63-2.83,0-4.61-1.82-4.61-4.52s1.71-4.56,4.39-4.56,4.03,1.82,4.03,4.14c0,.53-.08.84-.08.84h-6.64Zm.04-1.18h4.99c-.02-1.46-.94-2.42-2.34-2.42s-2.4.99-2.64,2.42Z"/>
          <path class="cls-1" d="m255.8,102.99h1.62v11.78h-1.62v-11.78Z"/>
          <path class="cls-1" d="m267.65,109.61v5.16h-1.59v-5.16c0-1.23-.7-2.05-1.96-2.05-1.75,0-2.54,1.59-2.54,2.8v4.41h-1.57v-8.43l1.11-.05c.14.64.21,1.59.21,1.96h.05c.45-1.05,1.39-2.02,3-2.02,2.02,0,3.28,1.36,3.28,3.37Z"/>
          <path class="cls-1" d="m270.72,104.66c-.61,0-1.09-.45-1.09-1.05s.48-1.07,1.09-1.07,1.11.46,1.11,1.07-.5,1.05-1.11,1.05Zm-.84,1.68l1.59-.05v8.48h-1.59v-8.43Z"/>
          <path class="cls-1" d="m279.61,114.32s-.84.55-2.21.55c-2.18,0-3.05-1.16-3.05-3.32v-3.95h-1.34v-1.27h1.34v-2.5l1.59-.09v2.59h3.27v1.27h-3.27v3.89c0,1.36.48,2.04,1.62,2.04.98,0,1.55-.48,1.55-.48l.5,1.27Z"/>
          <path class="cls-1" d="m281.66,104.66c-.61,0-1.09-.45-1.09-1.05s.48-1.07,1.09-1.07,1.11.46,1.11,1.07-.5,1.05-1.11,1.05Zm-.84,1.68l1.59-.05v8.48h-1.59v-8.43Z"/>
          <path class="cls-1" d="m292.45,114.75s-.41.11-.86.11c-.87,0-1.52-.41-1.52-1.39v-.02h-.04c-.23.43-.96,1.43-2.93,1.43-1.86,0-2.86-.96-2.86-2.34,0-1.84,1.75-2.57,5.46-2.57h.25v-.54c0-1.14-.7-1.87-2.09-1.87-1.2,0-1.93.48-1.93,1.36,0,.2.04.3.09.43l-1.48.25s-.11-.32-.11-.73c0-1.54,1.32-2.62,3.46-2.62,2.29,0,3.62,1.23,3.62,3.18v3.41c0,.46.12.64.52.64.11,0,.23-.02.3-.04l.09,1.32Zm-2.48-2.89v-.8h-.25c-2.87,0-3.86.52-3.86,1.45,0,.66.5,1.05,1.57,1.05,1.64,0,2.54-.91,2.54-1.7Z"/>
          <path class="cls-1" d="m299.62,114.32s-.84.55-2.21.55c-2.18,0-3.05-1.16-3.05-3.32v-3.95h-1.34v-1.27h1.34v-2.5l1.59-.09v2.59h3.27v1.27h-3.27v3.89c0,1.36.48,2.04,1.62,2.04.98,0,1.55-.48,1.55-.48l.5,1.27Z"/>
          <path class="cls-1" d="m301.67,104.66c-.61,0-1.09-.45-1.09-1.05s.48-1.07,1.09-1.07,1.11.46,1.11,1.07-.5,1.05-1.11,1.05Zm-.84,1.68l1.59-.05v8.48h-1.59v-8.43Z"/>
          <path class="cls-1" d="m312.42,106.34l-3.45,8.43h-1.71l-3.48-8.43h1.77l2.32,5.89c.18.43.21.57.29.93h.04c.07-.39.12-.55.27-.93l2.36-5.89h1.61Z"/>
          <path class="cls-1" d="m314.64,110.98c.16,1.55,1.21,2.57,2.89,2.57,1.29,0,2.02-.61,2.39-1.11l.96.87c-.79,1.04-2.04,1.55-3.48,1.55-2.7,0-4.39-1.73-4.39-4.3s1.62-4.34,4.18-4.34,3.84,1.73,3.84,3.95c0,.5-.07.8-.07.8h-6.32Zm.04-1.12h4.75c-.02-1.39-.89-2.3-2.23-2.3s-2.29.95-2.52,2.3Z"/>
        </g>
      </g>
    </g>
  </g>
</svg>