<svg version="1.0" xmlns="http://www.w3.org/2000/svg" class="site_logo" width="2667.000000pt" height="375.000000pt" viewBox="0 0 2667.000000 375.000000" preserveAspectRatio="xMidYMid meet">

                    <g transform="translate(0.000000,375.000000) scale(0.100000,-0.100000)" fill="#ffffff" stroke="none">
                        <path d="M2036 3696 c-42 -31 -86 -61 -97 -67 -19 -10 -20 -17 -14 -102 3 -51
19 -339 35 -640 16 -301 32 -552 35 -557 23 -37 68 30 89 130 28 129 36 280
46 780 7 392 7 487 -4 498 -10 11 -27 3 -90 -42z"></path>
                        <path d="M3029 3687 l-94 -64 3 -144 c5 -256 40 -783 58 -860 34 -150 94 -223
212 -256 65 -17 213 -18 4068 -18 l4000 0 75 37 c44 22 97 59 131 92 l57 56
85 -54 c167 -105 341 -160 441 -139 70 15 100 36 133 92 24 41 27 57 30 161 4
104 1 124 -22 194 -46 136 -109 215 -211 262 -133 63 -233 11 -404 -210 -102
-132 -175 -200 -258 -239 l-68 -32 -3935 -3 c-2521 -1 -3958 1 -3999 7 -97 15
-151 46 -179 103 l-24 47 9 507 c6 367 5 508 -3 515 -7 6 -44 -13 -105 -54z
m8925 -827 c71 -35 117 -88 162 -183 50 -109 25 -139 -102 -119 -41 7 -108 25
-148 42 -87 36 -186 97 -186 114 0 20 100 125 139 146 47 25 85 25 135 0z"></path>
                        <path d="M13245 3675 l-100 -71 -7 -195 c-5 -166 -26 -331 -44 -361 -2 -3 -57
46 -122 111 -217 217 -500 451 -545 451 -12 0 -17 -16 -21 -67 -4 -38 -9 -93
-11 -123 l-5 -55 125 -83 c134 -89 328 -241 435 -339 l64 -60 -54 -54 c-63
-63 -141 -118 -255 -178 -112 -59 -115 -63 -115 -180 l0 -98 51 -11 c84 -20
288 -35 380 -28 296 20 388 163 265 411 -25 50 -53 102 -62 117 -18 26 -17 28
23 115 71 151 99 286 113 538 12 219 12 222 -2 227 -7 3 -58 -27 -113 -67z
m-88 -937 c72 -102 74 -134 11 -158 -41 -15 -298 -26 -298 -13 0 5 28 30 63
55 34 26 87 72 117 102 30 31 59 56 65 56 7 0 25 -19 42 -42z"></path>
                        <path d="M13732 3685 c-51 -34 -95 -64 -97 -67 -8 -8 65 -1282 74 -1291 31
-31 73 50 95 183 20 120 34 417 40 871 5 284 3 358 -7 362 -7 3 -54 -23 -105
-58z"></path>
                        <path d="M14883 3671 c-32 -26 -68 -60 -81 -73 l-23 -25 38 -25 c21 -14 61
-46 89 -71 l51 -46 39 31 c21 17 56 47 76 66 42 40 31 44 135 -45 l61 -53 34
27 c57 46 118 107 118 118 0 12 -24 34 -103 98 l-58 47 -27 -19 c-15 -11 -49
-40 -77 -64 l-49 -44 -62 53 c-98 82 -94 82 -161 25z"></path>
                        <path d="M600 3564 c-25 -20 -62 -52 -83 -73 l-38 -38 63 -51 c35 -27 74 -62
87 -76 l24 -25 46 38 c25 21 59 51 75 66 35 33 47 29 128 -44 31 -28 60 -51
65 -51 13 0 134 104 145 125 8 14 1 26 -32 60 -24 24 -62 57 -85 74 l-41 30
-77 -65 -77 -64 -37 36 c-21 20 -56 48 -79 64 l-40 28 -44 -34z"></path>
                        <path d="M24397 3579 c-121 -28 -237 -141 -237 -230 0 -45 30 -100 65 -119 14
-7 25 -16 24 -19 0 -3 -24 -24 -52 -47 -54 -41 -64 -59 -48 -83 8 -12 25 -7
99 31 92 48 180 78 288 98 60 12 61 12 87 66 15 30 27 57 27 59 0 11 -59 4
-130 -15 -97 -25 -124 -25 -185 4 -66 31 -93 60 -75 82 40 47 136 70 205 49
27 -8 52 -11 56 -7 45 56 69 94 63 103 -20 33 -108 47 -187 28z"></path>
                        <path d="M15120 3264 l-95 -64 3 -43 c3 -41 3 -42 -45 -64 -149 -68 -326 -222
-378 -327 -33 -67 -43 -147 -26 -199 14 -42 64 -82 127 -104 69 -24 246 -13
341 20 l73 26 36 -36 c43 -41 131 -85 224 -110 62 -17 199 -18 2625 -18 2471
0 2562 1 2615 19 63 21 135 59 168 89 l22 21 16 -22 c74 -106 228 -149 366
-103 41 14 87 40 125 70 l61 49 30 -36 c47 -60 122 -95 213 -100 103 -6 162
14 234 80 l55 50 38 -25 c96 -66 199 -92 367 -92 155 0 238 21 327 83 l56 40
41 -44 c57 -61 111 -86 197 -92 110 -7 215 30 295 105 l27 25 44 -45 c65 -65
139 -90 248 -85 71 3 94 9 139 33 99 54 144 148 144 300 0 50 -5 115 -13 145
-15 64 -72 194 -90 205 -8 5 -37 -17 -81 -61 l-68 -68 33 -40 c34 -43 126
-218 126 -242 0 -36 -214 -59 -284 -30 -68 28 -105 109 -106 232 0 33 -3 64
-6 67 -4 4 -33 -7 -65 -25 -50 -26 -59 -35 -59 -58 0 -45 -29 -128 -57 -161
-40 -47 -96 -69 -176 -69 -133 0 -183 54 -194 214 -3 47 -8 86 -10 86 -3 0
-29 -15 -59 -32 -37 -22 -57 -41 -60 -58 -22 -98 -69 -156 -150 -185 -63 -22
-228 -31 -322 -16 -158 25 -210 84 -227 264 -4 37 -10 67 -15 67 -5 0 -31 -14
-59 -31 -46 -29 -51 -35 -56 -78 -16 -133 -40 -188 -95 -216 -37 -19 -133 -19
-173 0 -62 29 -107 131 -107 241 0 28 -3 53 -6 57 -3 3 -33 -8 -65 -26 -48
-26 -59 -36 -59 -58 0 -44 -29 -127 -57 -160 -39 -45 -96 -69 -171 -69 -82 0
-124 19 -159 71 -24 36 -29 55 -33 133 -3 51 -9 91 -15 91 -5 0 -33 -13 -61
-28 -47 -27 -52 -33 -63 -81 -22 -97 -92 -155 -212 -176 -45 -8 -802 -10
-2599 -8 -2368 3 -2538 4 -2585 20 -29 10 -66 33 -85 53 l-35 36 -5 327 c-4
280 -7 327 -20 329 -8 1 -58 -27 -110 -63z m-61 -432 c16 -147 18 -138 -36
-155 -122 -39 -256 -48 -318 -23 -62 26 -43 76 59 152 89 68 261 151 278 135
3 -3 11 -52 17 -109z"></path>
                        <path d="M1462 3084 l-72 -78 53 -55 c67 -71 115 -141 139 -203 l18 -48 -22
-9 c-110 -42 -260 -79 -433 -108 -152 -25 -576 -26 -680 -1 -279 66 -356 187
-275 430 17 50 29 92 27 94 -2 2 -19 10 -39 19 l-37 15 -34 -58 c-19 -31 -47
-88 -63 -127 -26 -63 -29 -81 -29 -190 0 -111 2 -124 27 -171 31 -59 112 -135
179 -170 177 -89 489 -115 824 -68 131 19 376 80 496 124 l87 31 28 62 c27 58
29 71 29 187 0 101 -4 138 -22 195 -25 78 -93 198 -115 203 -8 2 -47 -32 -86
-74z"></path>
                        <path d="M26270 3061 c-75 -23 -126 -70 -259 -240 -97 -125 -184 -203 -260
-233 -55 -23 -63 -23 -553 -26 l-497 -3 -5 23 c-32 163 -75 267 -137 329 -103
103 -250 91 -362 -30 -70 -75 -109 -165 -115 -263 -8 -130 30 -196 138 -247
50 -23 70 -26 203 -29 108 -3 147 -7 147 -17 0 -23 -60 -94 -116 -139 -77 -60
-197 -118 -334 -162 -136 -43 -160 -54 -160 -69 0 -55 338 -74 460 -26 145 57
243 190 266 362 l6 48 507 3 507 3 75 37 c40 20 100 61 132 91 l59 54 85 -53
c90 -56 232 -116 322 -135 69 -14 143 -6 187 22 159 98 127 468 -54 629 -78
69 -164 94 -242 71z m115 -200 c71 -32 153 -137 185 -235 12 -37 11 -41 -10
-58 -29 -23 -68 -23 -166 2 -89 23 -203 75 -252 117 l-34 28 47 58 c55 66 116
107 160 107 17 0 48 -9 70 -19z m-1987 -96 c62 -27 172 -151 172 -196 0 -8
-37 -10 -147 -7 -126 4 -156 8 -200 28 -68 29 -71 46 -21 117 50 70 118 90
196 58z"></path>
                        <path d="M2497 2927 c-32 -51 -57 -98 -57 -103 0 -5 18 -27 41 -47 54 -50 140
-171 168 -237 46 -107 26 -187 -72 -288 -91 -93 -234 -177 -402 -238 -51 -18
-90 -38 -90 -45 0 -21 112 -50 216 -56 80 -5 108 -2 166 15 189 58 289 211
300 463 7 144 -14 277 -64 399 -34 84 -118 221 -139 227 -6 2 -36 -38 -67 -90z"></path>
                        <path d="M12867 2129 c-138 -33 -256 -156 -244 -258 4 -39 12 -52 49 -84 l43
-38 -25 -17 c-14 -9 -41 -31 -60 -48 -31 -29 -33 -34 -22 -58 l11 -26 59 36
c77 45 191 89 285 108 41 9 81 18 88 21 13 5 54 88 54 110 0 13 -42 8 -139
-16 -49 -13 -90 -17 -110 -13 -44 9 -97 38 -124 66 l-22 24 23 22 c52 49 158
67 215 38 27 -14 28 -13 66 40 43 62 40 76 -23 94 -42 12 -72 11 -124 -1z"></path>
                        <path d="M11110 1181 c-96 -32 -168 -99 -196 -184 -23 -70 -15 -176 18 -242
27 -53 152 -179 250 -254 122 -92 169 -199 138 -313 -29 -103 -128 -140 -234
-87 -20 9 -51 52 -98 129 -38 63 -74 119 -79 125 -6 6 -9 -50 -7 -150 l3 -160
95 -13 c148 -19 232 -13 311 24 124 59 181 151 181 294 1 128 -48 205 -220
351 -59 50 -122 107 -140 127 -72 79 -90 168 -51 249 26 54 69 69 142 50 46
-12 49 -15 132 -142 l85 -130 -2 154 -3 155 -30 8 c-43 12 -265 19 -295 9z"></path>
                        <path d="M14077 1166 c-66 -27 -81 -38 -153 -112 -57 -59 -106 -149 -131 -244
-25 -91 -25 -329 0 -419 44 -160 130 -276 245 -333 60 -30 75 -33 157 -33 82
0 97 3 157 33 121 59 218 190 259 351 28 106 28 306 0 412 -40 156 -125 275
-235 331 -52 27 -74 32 -151 35 -78 3 -98 0 -148 -21z m201 -57 c102 -83 162
-322 149 -599 -13 -293 -84 -440 -212 -440 -147 0 -236 211 -237 565 -1 216
21 332 82 429 18 27 44 53 63 62 46 21 118 13 155 -17z"></path>
                        <path d="M22120 1181 c-138 -45 -258 -178 -310 -346 -30 -96 -38 -289 -17
-402 33 -175 133 -321 260 -379 54 -25 74 -29 152 -29 79 0 97 4 150 29 127
62 236 213 270 375 19 92 19 284 0 376 -33 156 -134 298 -252 352 -46 21 -76
28 -143 30 -47 1 -96 -1 -110 -6z m145 -58 c63 -30 121 -141 152 -293 23 -108
22 -409 -1 -512 -37 -171 -97 -248 -191 -248 -73 0 -121 39 -165 132 -52 111
-73 236 -74 438 0 179 13 278 51 368 48 116 135 160 228 115z"></path>
                        <path d="M2906 1168 c4 -7 23 -31 41 -54 l33 -41 0 -469 -1 -469 -39 -45 -40
-45 337 -3 c185 -1 338 -1 340 1 2 3 2 73 1 158 l-3 154 -45 -70 c-25 -38 -66
-98 -90 -132 l-45 -62 -107 -1 -108 0 0 250 0 250 105 0 105 0 46 -70 c26 -39
49 -70 50 -70 2 0 4 73 4 162 l0 162 -51 -67 -52 -67 -103 0 -104 0 0 270 0
270 -141 0 c-109 0 -139 -3 -133 -12z"></path>
                        <path d="M3357 1166 c4 -7 53 -80 108 -161 l100 -147 3 148 c1 82 0 154 -2
161 -4 10 -34 13 -111 13 -87 0 -105 -2 -98 -14z"></path>
                        <path d="M4040 1170 c0 -5 20 -29 45 -53 l45 -44 0 -465 0 -466 -45 -48 -45
-49 60 -3 c33 -2 88 -2 122 0 l62 3 -52 49 -52 49 0 369 c0 204 4 368 9 368 8
0 95 -225 219 -570 92 -256 103 -281 115 -277 6 2 25 48 43 103 18 54 86 261
151 459 l118 360 3 -408 2 -408 -35 -43 c-19 -24 -35 -46 -35 -50 0 -3 79 -6
176 -6 l176 0 -41 46 -41 47 0 471 c0 456 1 472 21 496 11 14 29 37 40 53 l20
27 -140 0 -140 0 -36 -117 c-21 -65 -59 -185 -85 -268 -27 -82 -67 -210 -90
-282 -23 -73 -44 -133 -48 -133 -6 0 -185 502 -266 743 l-19 57 -128 0 c-78 0
-129 -4 -129 -10z"></path>
                        <path d="M5550 1174 c0 -3 18 -26 40 -51 l40 -46 0 -471 -1 -471 -40 -45 -40
-45 85 -3 c47 -1 126 -1 177 0 l92 3 -41 48 -42 48 0 463 0 463 22 29 c13 16
31 38 40 48 10 11 18 23 18 28 0 4 -79 8 -175 8 -96 0 -175 -3 -175 -6z"></path>
                        <path d="M6360 1175 c0 -4 18 -29 40 -55 l40 -48 0 -468 -1 -469 -39 -45 -40
-45 85 -3 c46 -1 125 -1 175 0 l90 3 -40 49 -40 49 2 196 3 196 33 0 33 0 89
-210 c78 -184 87 -212 76 -230 -36 -57 -41 -55 146 -55 l172 0 -51 53 c-37 37
-65 80 -96 147 -25 52 -67 141 -95 197 -67 136 -67 137 -38 151 44 20 107 84
134 136 23 44 26 64 27 141 0 78 -4 97 -27 146 -32 64 -87 112 -162 142 -45
18 -79 21 -283 25 -128 2 -233 1 -233 -3z m431 -78 c55 -36 73 -86 77 -208 5
-135 -12 -203 -63 -247 -37 -33 -89 -52 -142 -52 l-33 0 0 265 0 265 64 0 c49
0 71 -5 97 -23z"></path>
                        <path d="M7740 1172 c0 -5 6 -30 14 -56 14 -46 13 -52 -50 -294 -191 -737
-173 -677 -211 -716 -20 -20 -39 -36 -43 -36 -4 0 -10 -7 -14 -15 -5 -13 14
-15 132 -15 l137 1 -59 53 -59 53 17 69 c9 38 26 104 38 146 l20 78 137 0 138
0 36 -139 c21 -77 39 -145 42 -153 3 -7 -7 -27 -22 -43 -65 -71 -76 -65 131
-65 l187 0 -40 48 c-44 52 -42 47 -176 532 -54 194 -140 505 -151 543 -5 15
-19 17 -105 17 -54 0 -99 -4 -99 -8z m125 -469 c30 -113 55 -207 55 -209 0 -2
-54 -4 -120 -4 -76 0 -120 4 -120 10 0 10 74 312 102 415 10 37 11 38 19 17 5
-13 34 -116 64 -229z"></path>
                        <path d="M8560 1023 l0 -157 81 114 c44 63 83 121 86 128 3 7 24 12 54 12 l49
0 0 -498 0 -499 -26 -24 c-14 -13 -30 -32 -35 -41 -9 -17 2 -18 166 -18 l176
0 -40 48 -41 48 0 492 0 492 49 0 c48 0 48 0 91 -62 24 -35 61 -89 83 -120 22
-32 41 -58 43 -58 2 0 4 68 4 150 l0 150 -370 0 -370 0 0 -157z"></path>
                        <path d="M9730 1170 c0 -5 16 -27 35 -49 l35 -38 0 -478 0 -478 -37 -41 -37
-41 333 -3 c184 -1 336 -1 338 1 2 3 2 72 1 155 l-3 150 -89 -129 -89 -129
-109 0 -108 0 0 250 0 250 103 0 103 0 53 -75 c28 -41 54 -75 57 -75 2 0 4 75
4 168 l-1 167 -35 -40 c-19 -22 -42 -52 -51 -67 -17 -28 -18 -28 -125 -28
l-108 0 0 240 0 240 104 0 105 0 82 -120 c45 -67 86 -123 91 -126 4 -3 8 65 8
150 l0 156 -330 0 c-213 0 -330 -4 -330 -10z"></path>
                        <path d="M12700 1173 c0 -4 18 -28 40 -54 l40 -48 0 -470 c0 -278 -4 -472 -9
-476 -5 -3 -24 -23 -41 -45 l-32 -40 188 0 187 0 -52 52 -51 51 2 211 3 211
100 2 100 3 50 -75 50 -76 3 86 c1 47 1 122 0 166 l-3 80 -50 -66 -49 -66
-101 3 -100 3 4 278 3 277 -141 0 c-77 0 -141 -3 -141 -7z"></path>
                        <path d="M13156 1168 c13 -23 196 -293 205 -302 5 -6 9 58 9 152 l0 162 -111
0 c-85 0 -109 -3 -103 -12z"></path>
                        <path d="M15050 1174 c0 -3 17 -26 38 -51 l37 -46 5 -406 5 -406 29 -63 c57
-123 152 -177 312 -177 81 0 97 3 150 30 43 22 68 43 91 79 64 95 66 110 72
548 l6 397 43 43 c23 24 42 47 42 51 0 4 -54 7 -120 7 -66 0 -120 -3 -120 -7
1 -5 23 -30 50 -58 l50 -50 0 -355 c0 -387 -7 -454 -55 -536 -66 -112 -241
-120 -312 -15 -44 66 -47 88 -50 511 l-4 405 45 45 c26 24 46 48 46 52 0 4
-81 8 -180 8 -99 0 -180 -3 -180 -6z"></path>
                        <path d="M16260 1175 c0 -2 23 -25 50 -51 l50 -47 0 -471 0 -470 -47 -48 -47
-48 129 0 129 0 -52 53 -52 53 2 364 3 365 194 -340 c301 -530 280 -495 307
-495 l24 0 0 518 0 518 45 44 c25 24 45 48 45 52 0 4 -56 8 -125 8 -69 0 -125
-3 -125 -7 0 -5 23 -27 50 -51 l50 -43 0 -327 c0 -205 -4 -322 -9 -316 -9 8
-120 201 -354 616 l-72 127 -97 1 c-54 0 -98 -2 -98 -5z"></path>
                        <path d="M17460 1174 c0 -4 18 -29 40 -55 l40 -48 0 -465 0 -465 -42 -48 -41
-48 44 -3 c24 -2 134 -2 244 0 l200 3 66 33 c181 88 274 247 286 487 15 307
-96 505 -329 586 -55 20 -90 23 -285 27 -123 2 -223 1 -223 -4z m406 -59 c107
-31 180 -134 210 -295 22 -113 15 -427 -10 -510 -53 -171 -111 -223 -251 -224
l-80 -1 -3 523 -2 522 43 0 c24 0 66 -7 93 -15z"></path>
                        <path d="M18944 1148 c4 -18 10 -47 13 -63 3 -19 -12 -98 -42 -210 -25 -99
-78 -301 -116 -450 l-70 -270 -57 -58 -56 -57 144 0 145 0 -60 54 -60 53 35
144 36 144 139 0 139 0 38 -140 c21 -77 38 -147 38 -156 0 -8 -12 -26 -26 -40
-14 -13 -30 -32 -35 -41 -9 -17 2 -18 178 -18 l187 0 -42 43 c-41 41 -46 53
-88 208 -167 602 -236 847 -244 867 -9 21 -16 22 -106 22 l-96 0 6 -32z m162
-625 l6 -33 -116 0 c-74 0 -116 4 -116 10 0 10 75 315 102 415 10 39 11 37 64
-160 30 -110 57 -215 60 -232z"></path>
                        <path d="M19800 1023 c0 -86 3 -153 7 -150 3 4 43 60 87 125 l81 117 53 3 52
3 0 -488 0 -488 -40 -49 c-22 -26 -40 -50 -40 -52 0 -2 79 -4 176 -4 l176 0
-41 49 -41 49 0 491 0 491 49 0 48 0 83 -120 c46 -66 85 -120 87 -120 2 0 3
68 3 150 l0 150 -370 0 -370 0 0 -157z"></path>
                        <path d="M20990 1173 c0 -4 18 -28 40 -54 l40 -48 0 -464 0 -465 -40 -48 -40
-49 84 -3 c47 -1 126 -1 176 0 l90 3 -40 49 -40 48 0 463 0 463 40 51 c22 28
40 53 40 56 0 3 -79 5 -175 5 -96 0 -175 -3 -175 -7z"></path>
                        <path d="M23070 1175 c0 -2 23 -25 50 -51 l50 -47 0 -471 0 -470 -47 -48 -47
-48 129 0 129 0 -52 53 -52 53 0 364 c0 224 4 360 9 355 10 -10 73 -120 335
-583 120 -211 141 -242 162 -242 l24 0 0 518 0 518 45 44 c25 24 45 48 45 52
0 4 -56 8 -125 8 -69 0 -125 -2 -125 -5 0 -3 23 -27 50 -53 l51 -47 -3 -325
-3 -325 -215 377 -215 378 -97 0 c-54 0 -98 -2 -98 -5z"></path>
                    </g>
                </svg>